<svg xmlns="http://www.w3.org/2000/svg" width="16.5" height="11.597" viewBox="0 0 16.5 11.597">
  <g id="Group_30054" data-name="Group 30054" transform="translate(-1769.75 -3989.706)">
    <path id="Path_386" data-name="Path 386" d="M87,5.505a.507.507,0,0,0-.156-.357l-5.258-5a.55.55,0,0,0-.752,0,.486.486,0,0,0,0,.714L85.187,5H71.531a.506.506,0,1,0,0,1.01H85.187l-4.353,4.137a.487.487,0,0,0,0,.714.55.55,0,0,0,.752,0l5.258-5A.5.5,0,0,0,87,5.505" transform="translate(1699 3990)" fill="#fff" stroke="#fff" stroke-width="0.5"/>
  </g>
</svg>
