<svg xmlns="http://www.w3.org/2000/svg" width="15" height="14.962" viewBox="0 0 15 14.962">
    <path id="Path_13495" data-name="Path 13495" d="M29.308,13.074a.656.656,0,0,0-.713-.144L14.907,18.539a.656.656,0,0,0,.048,1.232l5.762,1.856,1.856,5.763a.656.656,0,0,0,.6.454H23.2a.656.656,0,0,0,.606-.405l5.646-13.65A.656.656,0,0,0,29.308,13.074ZM23.274,25.285,21.863,20.9a.656.656,0,0,0-.423-.423l-4.373-1.408,8.939-3.663L22.94,18.476a.656.656,0,1,0,.928.928L27,16.266Z" transform="translate(-14.5 -12.881)" fill="#c59148"/>
</svg>
