<svg xmlns="http://www.w3.org/2000/svg" width="23.45" height="20.076" viewBox="0 0 23.45 20.076">
    <path id="Path_397" data-name="Path 397" d="M21.417,4.1H6.233A4.138,4.138,0,0,0,2.1,8.233V20.043a4.138,4.138,0,0,0,4.133,4.133H21.417a4.138,4.138,0,0,0,4.133-4.133V8.233A4.138,4.138,0,0,0,21.417,4.1ZM6.233,5.618H21.417a2.618,2.618,0,0,1,2.615,2.615v.419L13.825,14.933,3.618,8.653V8.233A2.618,2.618,0,0,1,6.233,5.618ZM21.417,22.658H6.233a2.618,2.618,0,0,1-2.615-2.615V10.436l9.809,6.036a.763.763,0,0,0,.8,0l9.809-6.036v9.607A2.618,2.618,0,0,1,21.417,22.658Z" transform="translate(-2.1 -4.1)" fill="#30302f"/>
</svg>
