<svg xmlns="http://www.w3.org/2000/svg" width="25.786" height="32.491" viewBox="0 0 25.786 32.491">
    <g id="Group_32423" data-name="Group 32423" transform="translate(-13 -1)">
        <path id="Path_19463" data-name="Path 19463" d="M13,33.491H38.786V7.189H32.6V1H13V15.44h2.063V3.063H30.535V9.252h6.189V31.428H13Z" fill="#30302f"/>
        <path id="Path_19464" data-name="Path 19464" d="M15.965,76.931a2.965,2.965,0,0,0,0-5.931H13v8.767h2.063V76.931Zm-.9-3.868h.9a.9.9,0,0,1,0,1.805h-.9Z" transform="translate(0 -51.95)" fill="#30302f"/>
        <path id="Path_19465" data-name="Path 19465" d="M82.157,73.063V71H77v8.767h2.063V76.931H80.61V74.868H79.063V73.063Z" transform="translate(-47.497 -51.95)" fill="#30302f"/>
        <path id="Path_19466" data-name="Path 19466" d="M50.447,75.384A4.38,4.38,0,0,0,46.063,71H44v8.767h2.063A4.38,4.38,0,0,0,50.447,75.384ZM46.063,77.7V73.063a2.321,2.321,0,1,1,0,4.642Z" transform="translate(-23.006 -51.95)" fill="#30302f"/>
    </g>
</svg>
