<svg xmlns="http://www.w3.org/2000/svg" width="21.388" height="21.428" viewBox="0 0 21.388 21.428">
    <path id="Path_396" data-name="Path 396" d="M19.979,22.678c-.072,0-.15,0-.229-.011a20.653,20.653,0,0,1-8.968-3.188,20.365,20.365,0,0,1-6.225-6.227A20.614,20.614,0,0,1,1.375,4.259a2.748,2.748,0,0,1,2.489-3c.082-.007.164-.011.246-.011H7.137A2.755,2.755,0,0,1,9.853,3.616a12.158,12.158,0,0,0,.66,2.652,2.755,2.755,0,0,1-.62,2.9l-.861.861a15.26,15.26,0,0,0,4.94,4.94l.858-.859a2.758,2.758,0,0,1,2.9-.621,12.042,12.042,0,0,0,2.644.658,2.753,2.753,0,0,1,2.372,2.783V19.92a2.75,2.75,0,0,1-2.739,2.758ZM7.129,2.75H7.117L4,2.755A1.25,1.25,0,0,0,2.867,4.112a19.119,19.119,0,0,0,2.952,8.33,18.889,18.889,0,0,0,5.773,5.775A19.148,19.148,0,0,0,19.9,21.174a.865.865,0,0,0,.1,0,1.248,1.248,0,0,0,1.254-1.255V16.9a1.251,1.251,0,0,0-1.075-1.269,13.622,13.622,0,0,1-2.967-.738,1.252,1.252,0,0,0-1.32.279L14.62,16.44a.749.749,0,0,1-.9.123,16.782,16.782,0,0,1-6.281-6.282.749.749,0,0,1,.122-.9L8.83,8.11a1.253,1.253,0,0,0,.278-1.316,13.652,13.652,0,0,1-.742-2.976A1.25,1.25,0,0,0,7.129,2.75Z" transform="translate(-1.363 -1.25)" fill="#30302f"/>
</svg>
