<svg id="Group_76" data-name="Group 76" xmlns="http://www.w3.org/2000/svg" width="19.5" height="23.5" viewBox="0 0 19.5 23.5">
    <path id="Path_394" data-name="Path 394" d="M12,23.75a.749.749,0,0,1-.416-.126C11.2,23.37,2.25,17.317,2.25,10a9.75,9.75,0,0,1,19.5,0c0,7.317-8.953,13.37-9.334,13.624A.749.749,0,0,1,12,23.75Zm0-22A8.259,8.259,0,0,0,3.75,10c0,5.678,6.521,10.817,8.25,12.081,1.729-1.264,8.25-6.4,8.25-12.081A8.259,8.259,0,0,0,12,1.75Z" transform="translate(-2.25 -0.25)" fill="#30302f"/>
    <path id="Path_395" data-name="Path 395" d="M12,13.75A3.75,3.75,0,1,1,15.75,10,3.754,3.754,0,0,1,12,13.75Zm0-6A2.25,2.25,0,1,0,14.25,10,2.252,2.252,0,0,0,12,7.75Z" transform="translate(-2.25 -0.25)" fill="#30302f"/>
</svg>
